# xmcd
#
# Track frame offsets:
# 150
# 9322
# 18021
# 32391
# 42817
# 51443
# 60924
# 71471
# 81747
# 96720
# 106999
# 117931
# 128749
# 137527
# 158550
# 169525
# 179340
# 189177
# 204078
# 213514
# 223906
# 233412
# 248054
# 260859
# 269844
# 281912
# 295506
# 310562
#
# Disc length: 4296 seconds
#
#
# Revision: 1
# Processed by: cddbd v1.4PL0 Copyright (c) Steve Scherf et al.
# Submitted via: FreeRIP 2.21 
#
DISCID=8810c61c
DTITLE=Studiova Trampska Seslost - Legendy Country
DYEAR=1900
DGENRE=
TTITLE0=Posledni vlak
TTITLE1=Aljaska
TTITLE2=Bajecna zenska
TTITLE3=Blues Folsomske veznice
TTITLE4=Hardy (Pranice)
TTITLE5=Modry mesic
TTITLE6=Chajda drnova
TTITLE7=Ja drzim tu dohled
TTITLE8=Zuzana
TTITLE9=John Hardy (Chudinka)
TTITLE10=Vuz do Tennese
TTITLE11=Zradny banjo
TTITLE12=Hucka
TTITLE13=Dlouhy cerny zavoj
TTITLE14=Jesse James
TTITLE15=Kdyz nas tata hral
TTITLE16=Rovnou, tady rovnou
TTITLE17=Nad nami vlajka hvezdnata
TTITLE18=Slapej dal
TTITLE19=Ja se vratim do Californie
TTITLE20=Je sobota
TTITLE21=Mama
TTITLE22=Reuben James
TTITLE23=Sest bilych koni
TTITLE24=Tyden 7 dni ma
TTITLE25=Wabash Cannonball
TTITLE26=Drsnej chlap
TTITLE27=Ziznivej Slim
EXTD=
EXTT0=
EXTT1=
EXTT2=
EXTT3=
EXTT4=
EXTT5=
EXTT6=
EXTT7=
EXTT8=
EXTT9=
EXTT10=
EXTT11=
EXTT12=
EXTT13=
EXTT14=
EXTT15=
EXTT16=
EXTT17=
EXTT18=
EXTT19=
EXTT20=
EXTT21=
EXTT22=
EXTT23=
EXTT24=
EXTT25=
EXTT26=
EXTT27=
PLAYORDER=
